<svg width="153" height="499" viewBox="0 0 153 499" fill="none" xmlns="http://www.w3.org/2000/svg">
<g clip-path="url(#clip0_61_97)">
<path d="M118.056 280.977C100.421 270.59 100.135 262.972 104.014 260.116C107.892 257.261 118.137 259.969 130.203 267.267C144.901 276.159 153.202 289.845 150.49 291.694C147.777 293.542 127.7 286.658 118.056 280.977Z" stroke="#AEDD88"/>
<path d="M33.1219 125.236C31.4771 121.055 10.937 123.021 13.4862 137.122C14.9112 145.005 34.7668 129.416 33.1219 125.236Z" stroke="#AEDD88"/>
<path d="M45.288 340.56C43.2407 332.617 2.796 325.915 3.87548 351.244C4.4793 365.404 47.3353 348.504 45.288 340.56Z" stroke="#AEDD88"/>
<path d="M85.807 35.7864C88.4829 37.9041 78.3247 49.6938 69.8689 45.6689C66.2158 43.93 83.131 33.6688 85.807 35.7864Z" stroke="#AEDD88"/>
<path d="M61.8142 175.525C26.1806 181.146 14.6025 202.353 15.0103 207.188C15.4183 212.023 49.459 223.877 74.1664 225.927C98.874 227.976 123.759 186.161 122.982 180.388C122.206 174.617 97.4476 169.905 61.8142 175.525Z" stroke="#AEDD88"/>
<path d="M23 194L81.8065 184.244L96 173" stroke="#AEDD88"/>
<path d="M19 198L83.0879 187L119 192.186" stroke="#AEDD88"/>
<path d="M63.5064 459.595C70.8672 462.425 97.4957 487.176 96.7923 490.533C96.389 492.458 74.27 491.254 55.2649 484.436C41.1247 479.363 28.844 469.643 27.7889 463.994C25.3166 450.75 54.3061 456.056 63.5064 459.595Z" stroke="#AEDD88"/>
<path d="M77.412 469.565L35.7504 473.995" stroke="#AEDD88"/>
<path d="M68.9144 462.67L35.2079 464.719L27.9834 461.637" stroke="#AEDD88"/>
</g>
<path d="M73.8545 2.94144C72.2097 -1.23896 51.6695 0.726543 54.2187 14.8277C55.6437 22.7107 75.4994 7.12174 73.8545 2.94144Z" stroke="#AEDD88"/>
<defs>
<clipPath id="clip0_61_97">
<rect width="152" height="464" fill="white" transform="translate(0.5 34.5)"/>
</clipPath>
</defs>
</svg>
