<svg width="621" height="289" viewBox="0 0 621 289" fill="none" xmlns="http://www.w3.org/2000/svg">
<path d="M497.388 228.769C483.792 220.879 483.571 215.092 486.561 212.923C489.552 210.754 497.45 212.811 506.754 218.355C518.086 225.109 524.486 235.505 522.395 236.909C520.303 238.313 504.824 233.084 497.388 228.769Z" stroke="#AEDD88"/>
<path d="M474.087 90.8653C483.8 85.0966 484.745 67.6762 483.18 67.0069C481.614 66.3376 471.759 66.5175 461.987 70.6631C452.214 74.8086 448.521 88.1331 449.887 89.9781C451.253 91.8232 464.374 96.634 474.087 90.8653Z" stroke="#AEDD88"/>
<path d="M214.66 191.612C215.18 194.771 228.352 201.454 228.485 191.947C228.56 186.632 214.14 188.453 214.66 191.612Z" stroke="#AEDD88"/>
<path d="M409.09 75.0546C407.824 70.8743 392.014 72.8397 393.976 86.9414C395.073 94.8245 410.357 79.2349 409.09 75.0546Z" stroke="#AEDD88"/>
<path d="M341.605 131.119C339.264 138.738 361.337 168.036 372.183 146.961C378.247 135.179 343.945 123.5 341.605 131.119Z" stroke="#AEDD88"/>
<path d="M329.543 81.4427C326.216 84.7155 338.847 102.936 349.361 96.7156C353.903 94.0282 332.87 78.1699 329.543 81.4427Z" stroke="#AEDD88"/>
<path d="M433.664 1.28639C435.724 3.40406 427.904 15.1938 421.396 11.1689C418.584 9.42997 431.604 -0.831289 433.664 1.28639Z" stroke="#AEDD88"/>
<path d="M281.363 266.582C284.37 275.519 331.114 281.089 329.435 258.162C328.71 248.256 278.356 257.646 281.363 266.582Z" stroke="#AEDD88"/>
<path d="M251.672 118.233C276.343 137.6 290.747 134.883 294.982 128.531C299.216 122.18 291.136 109.576 273.894 96.403C252.89 80.3561 224.744 74.8191 222.061 79.2007C219.379 83.5823 238.18 107.642 251.672 118.233Z" stroke="#AEDD88"/>
<path d="M295.636 127.052L252.701 84.2845M293.38 130.68L264.168 100.86L231.413 97.1005" stroke="#AEDD88"/>
<path d="M48.0668 179.699C77.3174 181.691 91.0964 164.93 91.8425 160.911C92.5886 156.893 68.2837 144.817 47.9249 140.346C27.8641 135.942 4.38102 146.1 4.05797 148.696C3.73493 151.292 32.0712 178.609 48.0668 179.699Z" stroke="#AEDD88"/>
<path d="M87.1455 167.734L34.9476 159.758L19.6661 164.684" stroke="#AEDD88"/>
<path d="M89.9862 164.445L36.0143 155.532L8.835 145.387" stroke="#AEDD88"/>
<path d="M475.139 126.682C447.476 130.563 438.487 145.207 438.804 148.546C439.121 151.885 465.547 160.07 484.729 161.486C503.91 162.901 523.228 134.026 522.626 130.04C522.023 126.055 502.802 122.801 475.139 126.682Z" stroke="#AEDD88"/>
<path d="M445.062 138.952L490.486 132.398L501.449 124.845" stroke="#AEDD88"/>
<path d="M442.22 142.141L491.344 134.339L518.87 138.017" stroke="#AEDD88"/>
<path d="M584.352 42.3098C590.24 40.3944 617.964 45.3365 619.007 48.4873C619.605 50.294 605.141 62.0249 590.154 67.3731C579.004 71.3523 566.968 70.4602 563.803 66.4439C556.385 57.0295 576.991 44.704 584.352 42.3098Z" stroke="#AEDD88"/>
<path d="M597.522 42.4733L573.244 70.0503" stroke="#AEDD88"/>
<path d="M589.119 41.7166L568.797 62.7716L562.883 64.4044" stroke="#AEDD88"/>
</svg>
