<svg width="117" height="464" viewBox="0 0 117 464" fill="none" xmlns="http://www.w3.org/2000/svg">
<path d="M90.3882 240.769C76.7915 232.879 76.571 227.092 79.5615 224.923C82.5519 222.754 90.4503 224.811 99.7536 230.355C111.086 237.109 117.486 247.505 115.395 248.909C113.303 250.313 97.8236 245.084 90.3882 240.769Z" stroke="#AEDD88"/>
<path d="M25.1103 90.7357C23.8442 86.5553 8.0337 88.5208 9.99592 102.622C11.0928 110.505 26.3764 94.916 25.1103 90.7357Z" stroke="#AEDD88"/>
<path d="M1.6047 299.119C-0.735615 306.738 21.3373 336.036 32.1834 314.961C38.2466 303.179 3.94502 291.5 1.6047 299.119Z" stroke="#AEDD88"/>
<path d="M65.6639 1.28645C67.7237 3.40413 59.9045 15.1938 53.3958 11.1689C50.5839 9.43003 63.6041 -0.831228 65.6639 1.28645Z" stroke="#AEDD88"/>
<path d="M47.1391 140.682C19.4758 144.563 10.4874 159.207 10.804 162.546C11.1207 165.885 37.5474 174.07 56.7285 175.486C75.9097 176.901 95.2282 148.026 94.6256 144.04C94.023 140.055 74.8023 136.801 47.1391 140.682Z" stroke="#AEDD88"/>
<path d="M17.0623 152.952L62.4859 146.398L73.4493 138.845" stroke="#AEDD88"/>
<path d="M14.2203 156.141L63.3438 148.339L90.8705 152.017" stroke="#AEDD88"/>
<path d="M41.3518 427.31C47.2402 425.394 74.9643 430.336 76.0069 433.487C76.6048 435.294 62.141 447.025 47.1543 452.373C36.0038 456.352 23.9681 455.46 20.8034 451.444C13.3853 442.029 33.9913 429.704 41.3518 427.31Z" stroke="#AEDD88"/>
<path d="M54.5218 427.473L30.2437 455.05" stroke="#AEDD88"/>
<path d="M46.1187 426.717L25.7969 447.772L19.883 449.404" stroke="#AEDD88"/>
</svg>
