<svg width="152" height="499" viewBox="0 0 152 499" fill="none" xmlns="http://www.w3.org/2000/svg">
<path d="M52.0105 400.566C61.3634 394.231 61.2721 376.785 59.6695 376.21C58.067 375.635 48.2404 376.4 38.7311 381.119C29.2218 385.838 26.3281 399.358 27.8011 401.119C29.274 402.879 42.6575 406.902 52.0105 400.566Z" stroke="#AEDD88"/>
<path d="M111.665 492.475C106.542 494.601 101.751 478.046 118.019 468.684C127.112 463.451 116.787 490.348 111.665 492.475Z" stroke="#AEDD88"/>
<path d="M101.896 2.47535C98.7694 5.94009 112.461 23.3777 122.587 16.5435C126.961 13.5909 105.023 -0.989379 101.896 2.47535Z" stroke="#AEDD88"/>
<path d="M79.102 312.518C82.6345 321.26 129.628 324.042 126.589 301.255C125.276 291.41 75.5695 303.775 79.102 312.518Z" stroke="#AEDD88"/>
<path d="M59.5893 131.007C85.3683 148.874 99.5847 145.305 103.435 138.713C107.284 132.122 98.4695 120.02 80.4745 107.895C58.5541 93.1248 30.1287 89.2703 27.7116 93.8036C25.2944 98.3369 45.4921 121.237 59.5893 131.007Z" stroke="#AEDD88"/>
<path d="M104 137.198L58.5992 97.0575M101.963 140.953L71.0312 112.922L38.1108 111.116" stroke="#AEDD88"/>
<path d="M92.0038 281.813C121.321 282.064 134.08 264.513 134.586 260.457C135.092 256.401 110.112 245.791 89.5234 242.539C69.2363 239.334 46.3985 250.87 46.2303 253.481C46.0621 256.091 75.9717 281.676 92.0038 281.813Z" stroke="#AEDD88"/>
<path d="M130.302 267.547L77.7227 262.687L62.7609 268.512" stroke="#AEDD88"/>
<path d="M132.943 264.095L78.5364 258.405L50.8022 249.893" stroke="#AEDD88"/>
</svg>
