<svg width="238" height="591" viewBox="0 0 238 591" fill="none" xmlns="http://www.w3.org/2000/svg">
<path d="M58 29V102.5H73V29C73 18.6 86 15.3333 92.5 15H148.5C162.5 15 166.5 29.1667 166.5 32.5V42C170.5 42 174.5 43.5 174.5 51C174.5 57 169.167 58.5 166.5 58.5C166.5 66.5 168 67 174.5 67C179.7 67 181 63.6667 181 62V29C181 15 166.5 0 152 0H92.5C64.5 0 57.8333 19.3333 58 29Z" fill="#2A2A2A"/>
<path d="M23 105L47.5 292.5H126H189.5L214 105H126H23Z" fill="#2A2A2A"/>
<path d="M121.002 464L121.001 294" stroke="#2A2A2A"/>
<path d="M121 414.5L142.5 436" stroke="#2A2A2A"/>
<path d="M121 409.5L138.5 426.5" stroke="#2A2A2A"/>
<path d="M117 514L117 294" stroke="#2A2A2A"/>
<path d="M117 465L96 486" stroke="#2A2A2A"/>
<path d="M117 460L100 477" stroke="#2A2A2A"/>
<path d="M122.5 194L88.5 221L80.5 222.5L76.5 179M140.5 213.5V249L152 259L143 261.5" stroke="#E5FF8F" stroke-width="2"/>
<circle cx="25.3986" cy="25.3986" r="25.3986" transform="matrix(0.846244 -0.532796 -0.532796 -0.846244 73.3929 256.754)" fill="#E5FF8F"/>
<circle cx="11.9523" cy="11.9523" r="11.9523" transform="matrix(0.846244 -0.532796 -0.532796 -0.846244 72.5513 193.726)" fill="#5FA66A"/>
<circle cx="44.8211" cy="44.8211" r="44.8211" transform="matrix(0.846244 -0.532796 -0.532796 -0.846244 127.805 236.62)" fill="#FDB08D"/>
<circle cx="5.42338" cy="5.42338" r="5.42338" transform="matrix(-0.67156 -0.74095 -0.74095 0.67156 159.288 258.879)" fill="#E5FF8F"/>
<circle cx="2.55218" cy="2.55218" r="2.55218" transform="matrix(-0.67156 -0.74095 -0.74095 0.67156 146.065 261.392)" fill="#5FA66A"/>
<circle cx="9.57067" cy="9.57067" r="9.57067" transform="matrix(-0.67156 -0.74095 -0.74095 0.67156 153.037 248.183)" fill="#FDB08D"/>
<path d="M101.5 144C107.667 136.167 124.7 122.2 147.5 125C176 128.5 191 151 191 173" stroke="#FDB08D" stroke-width="2"/>
<path d="M111.898 341.145L77.944 347.308M112.859 343.38L89.4213 347.338L77.0126 361.427M90.2557 493.023L51.935 524.212L45.0061 539.058M90.1416 488.395L50.1251 520.119L26.6314 531.642M134.787 520.188L169.464 550.251L182.35 553.6M130.516 520.126L168.558 552.169L183.787 575.393M165.422 369.731L129.033 374.807M159.544 363.678L130.408 366.389L124.859 363.77M7.65986 60.612C8.1801 63.771 21.352 70.4537 21.4851 60.9467C21.5596 55.6322 7.13962 57.453 7.65986 60.612ZM91.3873 464.464C92.0179 466.045 79.0075 477.668 68.066 474.857C57.1245 472.046 51.2743 459.354 51.6178 457.085C51.9614 454.815 64.0077 448.028 73.8415 452.028C83.6752 456.027 90.7568 462.882 91.3873 464.464ZM207.114 48.4532C201.991 50.5794 197.2 34.0247 213.467 24.6631C222.561 19.4299 212.236 46.3269 207.114 48.4532ZM1.56817 194.658C-1.55881 198.122 12.1328 215.56 22.2585 208.726C26.6332 205.773 4.69515 191.193 1.56817 194.658ZM161.611 483.869C169.896 479.367 167.325 432.362 145.03 437.968C135.398 440.39 153.326 488.371 161.611 483.869ZM112.376 341.932C113.968 345.977 110.555 353.594 93.4786 358.829C84.1406 361.692 66.7802 362.657 65.6042 359.978C64.4282 357.299 76.169 345.943 90.5002 341.343C102.265 337.566 110.784 337.888 112.376 341.932ZM89.249 484.28C91.1428 487.979 92.174 511.065 72.1634 530.492C61.2206 541.116 26.8368 539.952 25.511 537.677C24.1852 535.401 33.3031 510.548 48.822 499.616C64.5715 488.521 87.3552 480.581 89.249 484.28ZM123.908 548.721C121.062 546.366 115.513 548.022 111.263 563.157C108.938 571.433 107.734 587.728 109.616 589.403C111.497 591.079 119.968 582.289 123.683 569.63C126.732 559.238 126.754 551.076 123.908 548.721ZM142.975 427.158C142.035 431.423 156.788 437.441 161.972 424.181C164.871 416.768 143.915 422.892 142.975 427.158ZM179.899 441.339C180.175 436.482 162.823 422.337 159.467 436.408C157.591 444.274 179.622 446.196 179.899 441.339ZM236.268 165.118C238.328 167.235 230.509 179.025 224 175C221.188 173.261 234.208 163 236.268 165.118ZM123.437 521.733C125.755 519.309 142.71 516.525 163.746 534.905C184.781 553.285 194.897 569.949 192.277 573.013C189.657 576.077 155.181 580.361 143.701 564.929C132.221 549.498 121.119 524.157 123.437 521.733ZM177.788 388.301C179.053 385.233 161.257 363.407 155.544 361.019C148.402 358.035 124.743 353.942 124.227 365.917C124.008 371.025 132.55 379.55 143.599 383.804C158.448 389.523 177.064 390.061 177.788 388.301Z" stroke="#2A2A2A"/>
</svg>
